<?xml version="1.0" encoding="UTF-8"?>
<svg version="1.1" xmlns="http://www.w3.org/2000/svg" width="500" height="500">
<path d="M0 0 C0.97582031 0.00088623 1.95164063 0.00177246 2.95703125 0.00268555 C37.30587471 0.03814735 71.65538654 0.63635713 106 1.125 C106 13.995 106 26.865 106 40.125 C100.83963846 37.54481923 96.93830835 35.21107183 94 30.125 C93.00616487 24.51788962 93.53847152 18.76590369 94 13.125 C93.01 13.125 92.02 13.125 91 13.125 C91 18.075 91 23.025 91 28.125 C72.01885647 29.33045569 72.01885647 29.33045569 66.8125 24.75 C64 21.66450339 64 21.66450339 64 19.125 C63.360625 18.856875 62.72125 18.58875 62.0625 18.3125 C60 17.125 60 17.125 59 14.125 C57.55086967 14.12833092 57.55086967 14.12833092 56.07246399 14.13172913 C46.9647301 14.15200732 37.8570008 14.16699471 28.74924946 14.17681217 C24.06695425 14.1820291 19.38467729 14.18910517 14.70239258 14.20043945 C10.18312081 14.21131058 5.66386658 14.21728581 1.14458275 14.21987724 C-0.57897022 14.22172386 -2.30252224 14.22532983 -4.02606773 14.23073006 C-6.4414718 14.23799654 -8.85680355 14.23898857 -11.2722168 14.23852539 C-11.98359802 14.24212067 -12.69497925 14.24571594 -13.42791748 14.24942017 C-17.07954708 14.2418509 -20.44885828 13.99280493 -24 13.125 C-23.97905273 14.13401367 -23.95810547 15.14302734 -23.93652344 16.18261719 C-23.86403215 19.93214687 -23.8181678 23.68161482 -23.78027344 27.43164062 C-23.76017856 29.05349143 -23.73289746 30.67526997 -23.69824219 32.296875 C-23.6496273 34.6303898 -23.62701111 36.96294557 -23.609375 39.296875 C-23.58872986 40.01993835 -23.56808472 40.74300171 -23.54681396 41.48797607 C-23.54526185 44.98343465 -23.75042019 46.79791571 -25.89941406 49.61425781 C-28 51.125 -28 51.125 -30 51.125 C-30.2475 51.74375 -30.495 52.3625 -30.75 53 C-32 55.125 -32 55.125 -36 57.125 C-36 40.625 -36 24.125 -36 7.125 C-36.66 7.125 -37.32 7.125 -38 7.125 C-38 4.125 -38 4.125 -36.375 2.47998047 C-27.31414908 -2.68939891 -10.30022266 -0.02707827 0 0 Z M74 13.125 C74.33 14.115 74.66 15.105 75 16.125 C76.65 16.125 78.3 16.125 80 16.125 C79.67 15.135 79.34 14.145 79 13.125 C77.35 13.125 75.7 13.125 74 13.125 Z " fill="#EAEAEA" transform="translate(215,178.875)"/>
<path d="M0 0 C5.9126278 2.9563139 10.28914749 6.47880954 14 12 C15.18568011 17.45355639 14.96210282 22.58633706 14.625 28.125 C14.57473051 29.57276122 14.52912223 31.02069214 14.48828125 32.46875 C14.38764845 35.98687279 14.19241116 39.48101373 14 43 C21.92 42.505 21.92 42.505 30 42 C26.97833856 40.99277952 25.02274409 40.92658323 21.875 41 C20.25043671 41.03767103 18.62433238 41.04657584 17 41 C16 40 16 40 15.88647461 37.86694336 C15.89171143 36.95050049 15.89694824 36.03405762 15.90234375 35.08984375 C15.90556641 34.10048828 15.90878906 33.11113281 15.91210938 32.09179688 C15.92048828 31.05087891 15.92886719 30.00996094 15.9375 28.9375 C15.94201172 27.89271484 15.94652344 26.84792969 15.95117188 25.77148438 C15.96300087 23.1809334 15.97948311 20.59049441 16 18 C20 18 20 18 21.74609375 19.42578125 C22.30425781 20.04839844 22.86242187 20.67101562 23.4375 21.3125 C25.33921426 23.41718144 26.90077627 24.9418457 29.359375 26.3828125 C32.60944588 28.37324052 35.15725296 30.86471229 37.8125 33.5625 C38.56563477 34.3040332 38.56563477 34.3040332 39.33398438 35.06054688 C43 38.74651361 43 38.74651361 43 41 C43.66 41 44.32 41 45 41 C45 41.66 45 42.32 45 43 C59.85 43 74.7 43 90 43 C94 52 94 52 93 56 C62.31 55.67 31.62 55.34 0 55 C0 36.85 0 18.7 0 0 Z " fill="#EEEEEE" transform="translate(179,263)"/>
<path d="M0 0 C24.09 0 48.18 0 73 0 C73 26.07 73 52.14 73 79 C69.04 79 65.08 79 61 79 C61 56.89 61 34.78 61 12 C40.87 12 20.74 12 0 12 C0 8.04 0 4.08 0 0 Z " fill="#ECECEC" transform="translate(248,239)"/>
<path d="M0 0 C3.96 0 7.92 0 12 0 C12 13.2 12 26.4 12 40 C7.97763488 38.99440872 6.77588222 38.23677176 3.8125 35.5625 C3.11769531 34.94503906 2.42289063 34.32757813 1.70703125 33.69140625 C-0.57185539 31.43337898 -0.97813253 30.46738624 -1.12939453 27.234375 C-1.13052246 26.08453125 -1.13165039 24.9346875 -1.1328125 23.75 C-1.13410156 22.5021875 -1.13539063 21.254375 -1.13671875 19.96875 C-1.13285156 18.6590625 -1.12898437 17.349375 -1.125 16 C-1.12886719 14.6903125 -1.13273438 13.380625 -1.13671875 12.03125 C-1.13542969 10.7834375 -1.13414062 9.535625 -1.1328125 8.25 C-1.13168457 7.10015625 -1.13055664 5.9503125 -1.12939453 4.765625 C-1 2 -1 2 0 0 Z " fill="#EBECEC" transform="translate(233,239)"/>
<path d="M0 0 C0.66 0.99 1.32 1.98 2 3 C1.67 4.32 1.34 5.64 1 7 C-29.195 6.505 -29.195 6.505 -60 6 C-60 5.67 -60 5.34 -60 5 C-59.29256149 4.99635437 -58.58512299 4.99270874 -57.85624695 4.98895264 C-51.19049711 4.95109179 -44.52521089 4.89426174 -37.85980511 4.81609726 C-34.43296577 4.77658092 -31.00638496 4.74441344 -27.5793457 4.72900391 C-23.63980067 4.71096851 -19.70097231 4.66103569 -15.76171875 4.609375 C-14.53039719 4.60814636 -13.29907562 4.60691772 -12.03044128 4.60565186 C-10.31900688 4.57607391 -10.31900688 4.57607391 -8.57299805 4.54589844 C-7.06409248 4.53257477 -7.06409248 4.53257477 -5.52470398 4.51898193 C-2.8402016 4.22570051 -2.8402016 4.22570051 -1.15168762 1.96588135 C-0.77163071 1.3171405 -0.39157379 0.66839966 0 0 Z " fill="#B7B7B7" transform="translate(271,312)"/>
<path d="M0 0 C0 6.93 0 13.86 0 21 C-0.33 21 -0.66 21 -1 21 C-1 15.39 -1 9.78 -1 4 C-1.66 4 -2.32 4 -3 4 C-3 3.01 -3 2.02 -3 1 C-1 0 -1 0 0 0 Z " fill="#535555" transform="translate(180,182)"/>
<path d="M0 0 C3.16115776 1.36983503 3.9927092 1.9890638 6 5 C4.02 5.33 2.04 5.66 0 6 C0 4.02 0 2.04 0 0 Z " fill="#AEAEAE" transform="translate(179,263)"/>
</svg>
